<?xml version="1.0" encoding="UTF-8"?>
<!--Generator: Apple Native CoreSVG 326-->
<!DOCTYPE svg
PUBLIC "-//W3C//DTD SVG 1.1//EN"
       "http://www.w3.org/Graphics/SVG/1.1/DTD/svg11.dtd">
<svg version="1.1" xmlns="http://www.w3.org/2000/svg" xmlns:xlink="http://www.w3.org/1999/xlink" viewBox="0 0 80.1758 102.002">
 <g>
  <rect height="102.002" opacity="0" width="80.1758" x="0" y="0"/>
  <path d="M58.5449 23.3398C51.2695 23.3398 45.3125 27.7832 41.5039 27.7832C37.4512 27.7832 32.1777 23.3398 25.8301 23.3398C13.7695 23.3398 1.5625 33.5938 1.5625 52.3438C1.5625 64.0625 6.05469 76.416 11.6699 84.375C16.4551 91.1133 20.6543 96.5332 26.709 96.5332C32.666 96.5332 35.3027 92.6758 42.7246 92.6758C50.2441 92.6758 51.9531 96.5332 58.5449 96.5332C65.0879 96.5332 69.4336 90.5273 73.584 84.6191C78.1738 77.832 80.127 71.2402 80.1758 70.8984C79.7852 70.8008 67.2852 65.6738 67.2852 51.3672C67.2852 38.9648 77.0996 33.3984 77.6855 32.959C71.1914 23.6328 61.2793 23.3398 58.5449 23.3398ZM55.127 15.4297C58.1055 11.8164 60.2051 6.88477 60.2051 1.9043C60.2051 1.2207 60.1562 0.537109 60.0586 0C55.1758 0.195312 49.3164 3.22266 45.8496 7.32422C43.0664 10.4492 40.5273 15.4297 40.5273 20.4102C40.5273 21.1914 40.6738 21.9238 40.7227 22.168C41.0156 22.2168 41.5039 22.3145 42.041 22.3145C46.3867 22.3145 51.8555 19.3848 55.127 15.4297Z" fill="white" fill-opacity="0.85"/>
 </g>
</svg>
