<?xml version="1.0" encoding="UTF-8"?>
<!--Generator: Apple Native CoreSVG 326-->
<!DOCTYPE svg
PUBLIC "-//W3C//DTD SVG 1.1//EN"
       "http://www.w3.org/Graphics/SVG/1.1/DTD/svg11.dtd">
<svg version="1.1" xmlns="http://www.w3.org/2000/svg" xmlns:xlink="http://www.w3.org/1999/xlink" viewBox="0 0 117.822 84.2285">
 <g>
  <rect height="84.2285" opacity="0" width="117.822" x="0" y="0"/>
  <path d="M58.8867 47.5586C60.498 47.5586 62.0605 46.9238 63.5742 45.5566L112.354 2.58789C109.717 0.830078 106.689 0.0488281 102.49 0.0488281L15.332 0.0488281C11.1328 0.0488281 8.10547 0.830078 5.41992 2.58789L54.1992 45.5566C55.7617 46.9238 57.3242 47.5586 58.8867 47.5586ZM1.26953 76.3184L37.4023 40.2344L1.17188 8.30078C0.634766 9.32617 0 11.8164 0 15.1855L0 69.0918C0 72.2168 0.488281 74.4629 1.26953 76.3184ZM13.8672 84.2285L103.955 84.2285C107.52 84.2285 110.303 83.3496 112.158 82.0801L75 44.9219L67.8711 51.2695C65.0391 53.7598 61.9629 55.0293 58.8867 55.0293C55.8594 55.0293 52.7832 53.7598 49.9512 51.2695L42.8223 44.9219L5.66406 82.0801C7.51953 83.3496 10.2539 84.2285 13.8672 84.2285ZM116.553 76.3184C117.285 74.4629 117.822 72.2168 117.822 69.0918L117.822 15.1855C117.822 11.8164 117.188 9.32617 116.65 8.30078L80.4199 40.2344Z" fill="white" fill-opacity="0.85"/>
 </g>
</svg>
