<?xml version="1.0" encoding="UTF-8"?>
<!--Generator: Apple Native CoreSVG 326-->
<!DOCTYPE svg
PUBLIC "-//W3C//DTD SVG 1.1//EN"
       "http://www.w3.org/Graphics/SVG/1.1/DTD/svg11.dtd">
<svg version="1.1" xmlns="http://www.w3.org/2000/svg" xmlns:xlink="http://www.w3.org/1999/xlink" viewBox="0 0 146.289 112.354">
 <g>
  <rect height="112.354" opacity="0" width="146.289" x="0" y="0"/>
  <path d="M76.6602 101.465C80.0781 101.465 83.1055 99.8535 89.502 99.8535C95.9473 99.8535 97.7051 101.465 102.49 101.465C109.717 101.465 113.525 98.4863 113.525 93.4082C113.525 84.8145 104.199 79.0527 89.4531 79.0527C82.2266 79.0527 79.0039 79.7363 74.9023 80.7617L69.6289 68.75C64.4531 57.2266 56.1035 49.707 44.2871 49.707L38.5254 49.707C36.6211 49.707 35.3516 48.877 35.3516 47.0215C35.3516 43.9941 39.4043 43.2617 43.8477 43.2617C58.1543 43.2617 68.7012 51.123 75.1465 66.9434L78.5156 75.0977C81.7871 74.4141 85.3516 74.0723 88.9648 74.0723C91.8457 74.0723 94.4824 74.2676 97.2656 74.6582C100.244 72.4609 103.613 70.166 108.545 68.0176C114.014 71.7285 120.264 74.1211 126.758 74.1211C140.234 74.1211 146.289 71.1914 146.289 58.4473C146.289 43.0664 135.156 31.543 120.361 31.5918L107.275 14.1602C100 4.54102 91.1621 0 82.4707 0C75.3418 0 64.7461 4.10156 64.7461 9.86328C64.7461 13.7695 72.6562 19.2383 78.7598 22.998L106.885 40.1855C104.688 42.2852 102.734 43.4082 100.293 43.4082C96.5332 43.4082 92.5781 41.1133 86.6699 37.6953C71.6309 29.0039 60.0098 20.8496 44.3848 20.8496C28.125 20.8496 15.7715 30.1758 9.17969 48.3398C3.95508 48.3398 0 51.7578 0 56.7871C0 62.4512 4.49219 66.0156 10.6445 66.0156C17.7734 75.9766 29.4434 79.9805 43.2617 79.9805C43.9941 79.9805 44.7266 79.9316 45.459 79.9316L65.2344 96.3379C70.166 100.732 72.9492 101.465 76.6602 101.465ZM41.3574 105.322C50.7812 105.322 56.543 103.516 61.2305 100.293L46.0938 87.6953C45.4102 87.7441 44.5801 87.8418 43.5547 87.8418C41.1133 87.8418 37.5 87.1094 33.2031 87.1094C27.7344 87.1094 24.3652 90.0391 24.3652 94.4336C24.3652 100.977 31.0059 105.322 41.3574 105.322ZM125.635 56.1035C123.438 56.1035 121.68 54.248 121.68 52.0996C121.68 49.9023 123.486 47.9492 125.684 47.9492C127.93 47.9492 129.688 49.707 129.688 51.9043C129.688 54.1016 127.881 56.1035 125.635 56.1035Z" fill="white" fill-opacity="0.85"/>
 </g>
</svg>
