<?xml version="1.0" encoding="UTF-8"?>
<!--Generator: Apple Native CoreSVG 326-->
<!DOCTYPE svg
PUBLIC "-//W3C//DTD SVG 1.1//EN"
       "http://www.w3.org/Graphics/SVG/1.1/DTD/svg11.dtd">
<svg version="1.1" xmlns="http://www.w3.org/2000/svg" xmlns:xlink="http://www.w3.org/1999/xlink" viewBox="0 0 122.9 77.1973">
 <g>
  <rect height="77.1973" opacity="0" width="122.9" x="0" y="0"/>
  <path d="M15.332 77.1484L107.568 77.1484C117.725 77.1484 122.9 72.0703 122.9 62.0117L122.9 15.0879C122.9 5.07812 117.725 0 107.568 0L15.332 0C5.07812 0 0 5.0293 0 15.0879L0 62.0117C0 72.0703 5.07812 77.1484 15.332 77.1484ZM18.5059 26.8555C17.1387 26.8555 16.3086 25.9766 16.3086 24.6094L16.3086 19.9707C16.3086 18.6035 17.1387 17.7246 18.5059 17.7246L23.1445 17.7246C24.5605 17.7246 25.4395 18.6035 25.4395 19.9707L25.4395 24.6094C25.4395 25.9766 24.5605 26.8555 23.1445 26.8555ZM34.7168 26.8555C33.3008 26.8555 32.4707 25.9766 32.4707 24.6094L32.4707 19.9707C32.4707 18.6035 33.3008 17.7246 34.7168 17.7246L39.3555 17.7246C40.7227 17.7246 41.6016 18.6035 41.6016 19.9707L41.6016 24.6094C41.6016 25.9766 40.7227 26.8555 39.3555 26.8555ZM50.9277 26.8555C49.5605 26.8555 48.6816 25.9766 48.6816 24.6094L48.6816 19.9707C48.6816 18.6035 49.5605 17.7246 50.9277 17.7246L55.5176 17.7246C56.9336 17.7246 57.8125 18.6035 57.8125 19.9707L57.8125 24.6094C57.8125 25.9766 56.9336 26.8555 55.5176 26.8555ZM67.1387 26.8555C65.7715 26.8555 64.8926 25.9766 64.8926 24.6094L64.8926 19.9707C64.8926 18.6035 65.7715 17.7246 67.1387 17.7246L71.7773 17.7246C73.1445 17.7246 74.0234 18.6035 74.0234 19.9707L74.0234 24.6094C74.0234 25.9766 73.1445 26.8555 71.7773 26.8555ZM83.3496 26.8555C81.9336 26.8555 81.0547 25.9766 81.0547 24.6094L81.0547 19.9707C81.0547 18.6035 81.9336 17.7246 83.3496 17.7246L87.9883 17.7246C89.3555 17.7246 90.1855 18.6035 90.1855 19.9707L90.1855 24.6094C90.1855 25.9766 89.3555 26.8555 87.9883 26.8555ZM99.5605 26.8555C98.1445 26.8555 97.2656 25.9766 97.2656 24.6094L97.2656 19.9707C97.2656 18.6035 98.1445 17.7246 99.5605 17.7246L104.15 17.7246C105.566 17.7246 106.396 18.6035 106.396 19.9707L106.396 24.6094C106.396 25.9766 105.566 26.8555 104.15 26.8555ZM18.5059 43.0664C17.1387 43.0664 16.3086 42.1875 16.3086 40.8203L16.3086 36.1816C16.3086 34.8145 17.1387 33.9355 18.5059 33.9355L23.1445 33.9355C24.5605 33.9355 25.4395 34.8145 25.4395 36.1816L25.4395 40.8203C25.4395 42.1875 24.5605 43.0664 23.1445 43.0664ZM34.7168 43.0664C33.3008 43.0664 32.4707 42.1875 32.4707 40.8203L32.4707 36.1816C32.4707 34.8145 33.3008 33.9355 34.7168 33.9355L39.3555 33.9355C40.7227 33.9355 41.6016 34.8145 41.6016 36.1816L41.6016 40.8203C41.6016 42.1875 40.7227 43.0664 39.3555 43.0664ZM50.9277 43.0664C49.5605 43.0664 48.6816 42.1875 48.6816 40.8203L48.6816 36.1816C48.6816 34.8145 49.5605 33.9355 50.9277 33.9355L55.5176 33.9355C56.9336 33.9355 57.8125 34.8145 57.8125 36.1816L57.8125 40.8203C57.8125 42.1875 56.9336 43.0664 55.5176 43.0664ZM67.1387 43.0664C65.7715 43.0664 64.8926 42.1875 64.8926 40.8203L64.8926 36.1816C64.8926 34.8145 65.7715 33.9355 67.1387 33.9355L71.7773 33.9355C73.1445 33.9355 74.0234 34.8145 74.0234 36.1816L74.0234 40.8203C74.0234 42.1875 73.1445 43.0664 71.7773 43.0664ZM83.3496 43.0664C81.9336 43.0664 81.0547 42.1875 81.0547 40.8203L81.0547 36.1816C81.0547 34.8145 81.9336 33.9355 83.3496 33.9355L87.9883 33.9355C89.3555 33.9355 90.1855 34.8145 90.1855 36.1816L90.1855 40.8203C90.1855 42.1875 89.3555 43.0664 87.9883 43.0664ZM99.5605 43.0664C98.1445 43.0664 97.2656 42.1875 97.2656 40.8203L97.2656 36.1816C97.2656 34.8145 98.1445 33.9355 99.5605 33.9355L104.15 33.9355C105.566 33.9355 106.396 34.8145 106.396 36.1816L106.396 40.8203C106.396 42.1875 105.566 43.0664 104.15 43.0664ZM18.5059 59.2773C17.1387 59.2773 16.3086 58.3984 16.3086 57.0312L16.3086 52.3926C16.3086 51.0254 17.1387 50.1465 18.5059 50.1465L23.1445 50.1465C24.5605 50.1465 25.4395 51.0254 25.4395 52.3926L25.4395 57.0312C25.4395 58.3984 24.5605 59.2773 23.1445 59.2773ZM35.2539 59.2773C33.4961 59.2773 32.4707 58.252 32.4707 56.4941L32.4707 52.8809C32.4707 51.1719 33.4961 50.1465 35.2539 50.1465L87.4512 50.1465C89.1602 50.1465 90.1855 51.1719 90.1855 52.8809L90.1855 56.4941C90.1855 58.252 89.1602 59.2773 87.4512 59.2773ZM99.5605 59.2773C98.1445 59.2773 97.2656 58.3984 97.2656 57.0312L97.2656 52.3926C97.2656 51.0254 98.1445 50.1465 99.5605 50.1465L104.15 50.1465C105.566 50.1465 106.396 51.0254 106.396 52.3926L106.396 57.0312C106.396 58.3984 105.566 59.2773 104.15 59.2773Z" fill="white" fill-opacity="0.85"/>
 </g>
</svg>
