<?xml version="1.0" encoding="UTF-8"?>
<!--Generator: Apple Native CoreSVG 326-->
<!DOCTYPE svg
PUBLIC "-//W3C//DTD SVG 1.1//EN"
       "http://www.w3.org/Graphics/SVG/1.1/DTD/svg11.dtd">
<svg version="1.1" xmlns="http://www.w3.org/2000/svg" xmlns:xlink="http://www.w3.org/1999/xlink" viewBox="0 0 121.484 98.9746">
 <g>
  <rect height="98.9746" opacity="0" width="121.484" x="0" y="0"/>
  <path d="M97.3633 15.1367L97.3633 22.6074L89.502 22.6074L89.502 15.5762C89.502 10.498 86.7188 7.86133 81.8848 7.86133L15.4297 7.86133C10.5469 7.86133 7.86133 10.498 7.86133 15.5762L7.86133 60.791C7.86133 65.8691 10.6445 68.457 15.4297 68.457L24.1211 68.457L24.1211 76.3184L15.332 76.3184C5.07812 76.3184 0 71.2891 0 61.1816L0 15.1367C0 5.07812 5.07812 0 15.332 0L82.0312 0C92.1875 0 97.3633 5.07812 97.3633 15.1367Z" fill="white" fill-opacity="0.85"/>
  <path d="M39.4531 98.9258L106.152 98.9258C116.309 98.9258 121.484 93.8477 121.484 83.7891L121.484 37.7441C121.484 27.6855 116.309 22.6074 106.152 22.6074L39.4531 22.6074C29.1992 22.6074 24.1211 27.6855 24.1211 37.7441L24.1211 83.7891C24.1211 93.8965 29.1992 98.9258 39.4531 98.9258ZM39.5996 39.3066C37.207 39.3066 35.2539 37.207 35.2539 34.9609C35.2539 32.6172 37.207 30.5664 39.5996 30.5664C41.9922 30.5664 43.9453 32.6172 43.9453 34.9609C43.9453 37.207 41.9922 39.3066 39.5996 39.3066ZM53.6133 39.3066C51.2207 39.3066 49.2676 37.2559 49.2676 34.9609C49.2676 32.6172 51.2207 30.5664 53.6133 30.5664C56.0059 30.5664 57.959 32.6172 57.959 34.9609C57.959 37.2559 56.0059 39.3066 53.6133 39.3066ZM67.627 39.3066C65.2344 39.3066 63.2812 37.2559 63.2812 34.9609C63.2812 32.6172 65.2344 30.5664 67.627 30.5664C70.0195 30.5664 71.9727 32.6172 71.9727 34.9609C71.9727 37.2559 70.0195 39.3066 67.627 39.3066ZM39.5508 91.0645C34.668 91.0645 31.9824 88.4766 31.9824 83.3984L31.9824 47.2656L113.623 47.2656L113.623 83.3984C113.623 88.4766 110.84 91.0645 106.006 91.0645Z" fill="white" fill-opacity="0.85"/>
 </g>
</svg>
