<?xml version="1.0" encoding="UTF-8"?>
<!--Generator: Apple Native CoreSVG 326-->
<!DOCTYPE svg
PUBLIC "-//W3C//DTD SVG 1.1//EN"
       "http://www.w3.org/Graphics/SVG/1.1/DTD/svg11.dtd">
<svg version="1.1" xmlns="http://www.w3.org/2000/svg" xmlns:xlink="http://www.w3.org/1999/xlink" viewBox="0 0 95.4102 96.3379">
 <g>
  <rect height="96.3379" opacity="0" width="95.4102" x="0" y="0"/>
  <path d="M0 38.9648C0 60.4492 17.4805 77.9297 38.9648 77.9297C47.4609 77.9297 55.2246 75.1953 61.6211 70.6055L85.6445 94.6777C86.7676 95.8008 88.2324 96.3379 89.7949 96.3379C93.1152 96.3379 95.4102 93.8477 95.4102 90.5762C95.4102 89.0137 94.8242 87.5977 93.7988 86.5723L69.9219 62.5488C74.9512 56.0059 77.9297 47.8516 77.9297 38.9648C77.9297 17.4805 60.4492 0 38.9648 0C17.4805 0 0 17.4805 0 38.9648ZM8.34961 38.9648C8.34961 22.0703 22.0703 8.34961 38.9648 8.34961C55.8594 8.34961 69.5801 22.0703 69.5801 38.9648C69.5801 55.8594 55.8594 69.5801 38.9648 69.5801C22.0703 69.5801 8.34961 55.8594 8.34961 38.9648Z" fill="white" fill-opacity="0.85"/>
 </g>
</svg>
