<?xml version="1.0" encoding="UTF-8"?>
<!--Generator: Apple Native CoreSVG 326-->
<!DOCTYPE svg
PUBLIC "-//W3C//DTD SVG 1.1//EN"
       "http://www.w3.org/Graphics/SVG/1.1/DTD/svg11.dtd">
<svg version="1.1" xmlns="http://www.w3.org/2000/svg" xmlns:xlink="http://www.w3.org/1999/xlink" viewBox="0 0 105.518 89.9902">
 <g>
  <rect height="89.9902" opacity="0" width="105.518" x="0" y="0"/>
  <path d="M11.2305 89.9902L94.2871 89.9902C101.758 89.9902 105.518 86.377 105.518 78.8574L105.518 60.1562C105.518 52.7344 101.758 49.0723 94.2871 49.0723L11.2305 49.0723C3.75977 49.0723 0 52.7344 0 60.1562L0 78.8574C0 86.377 3.75977 89.9902 11.2305 89.9902Z" fill="white" fill-opacity="0.85"/>
  <path d="M11.2305 41.0156L94.2871 41.0156C101.758 41.0156 105.518 37.3535 105.518 29.834L105.518 11.1816C105.518 3.71094 101.758 0.0976562 94.2871 0.0976562L11.2305 0.0976562C3.75977 0.0976562 0 3.71094 0 11.1816L0 29.834C0 37.3535 3.75977 41.0156 11.2305 41.0156Z" fill="white" fill-opacity="0.85"/>
 </g>
</svg>
