<?xml version="1.0" encoding="UTF-8"?>
<!--Generator: Apple Native CoreSVG 326-->
<!DOCTYPE svg
PUBLIC "-//W3C//DTD SVG 1.1//EN"
       "http://www.w3.org/Graphics/SVG/1.1/DTD/svg11.dtd">
<svg version="1.1" xmlns="http://www.w3.org/2000/svg" xmlns:xlink="http://www.w3.org/1999/xlink" viewBox="0 0 103.662 103.76">
 <g>
  <rect height="103.76" opacity="0" width="103.662" x="0" y="0"/>
  <path d="M0 23.6328C0 26.5625 1.95312 28.4668 4.98047 28.4668L11.0352 28.4668L11.0352 12.6953C11.0352 9.61914 8.44727 7.32422 5.51758 7.32422C2.58789 7.27539 0 9.57031 0 12.6953ZM12.6465 0C16.4551 2.14844 17.6758 5.0293 17.6758 10.2539L17.6758 90.9668C17.6758 97.8516 21.6309 101.807 27.6367 101.807C33.2031 101.807 36.9141 97.998 36.9141 91.3574L36.9141 77.8809C36.9141 71.2402 39.9414 67.8223 46.6309 67.8223L93.6523 67.8223L93.6523 15.332C93.6523 5.12695 88.5742 0 78.5156 0ZM36.5234 25.4883C36.5234 23.8281 37.8418 22.5098 39.5996 22.5098L73.1934 22.5098C74.9512 22.5098 76.2207 23.8281 76.2207 25.4883C76.2207 27.1973 74.9512 28.5156 73.1934 28.5156L39.5996 28.5156C37.8418 28.5156 36.5234 27.1973 36.5234 25.4883ZM36.5234 42.627C36.5234 40.918 37.8418 39.5508 39.5996 39.5508L57.1289 39.5508C58.8867 39.5508 60.1562 40.918 60.1562 42.627C60.1562 44.2871 58.8867 45.5566 57.1289 45.5566L39.5996 45.5566C37.8418 45.5566 36.5234 44.2871 36.5234 42.627ZM38.916 103.711L88.2812 103.711C97.5586 103.711 103.662 97.3633 103.662 87.7441L103.662 79.3457C103.662 76.416 101.709 74.4629 98.6816 74.4629L48.584 74.4629C45.5566 74.4629 43.5547 76.416 43.5547 79.3457L43.5547 88.916C43.5547 94.5312 42.8223 99.5117 38.916 103.711Z" fill="white" fill-opacity="0.85"/>
 </g>
</svg>
