<?xml version="1.0" encoding="UTF-8"?>
<!--Generator: Apple Native CoreSVG 326-->
<!DOCTYPE svg
PUBLIC "-//W3C//DTD SVG 1.1//EN"
       "http://www.w3.org/Graphics/SVG/1.1/DTD/svg11.dtd">
<svg version="1.1" xmlns="http://www.w3.org/2000/svg" xmlns:xlink="http://www.w3.org/1999/xlink" viewBox="0 0 110.925 110.974">
 <g>
  <rect height="110.974" opacity="0" width="110.925" x="0" y="0"/>
  <path d="M25.8728 97.7966L36.4685 97.7966C37.4451 97.7966 38.1775 98.0896 38.9099 98.822L46.4295 106.293C52.5818 112.494 58.2947 112.445 64.447 106.293L71.9666 98.822C72.7478 98.0896 73.4314 97.7966 74.4568 97.7966L85.0037 97.7966C93.7439 97.7966 97.7966 93.7927 97.7966 85.0037L97.7966 74.4568C97.7966 73.4314 98.0896 72.7478 98.822 71.9666L106.293 64.447C112.494 58.2947 112.445 52.5818 106.293 46.4295L98.822 38.9099C98.0896 38.1775 97.7966 37.4451 97.7966 36.4685L97.7966 25.8728C97.7966 17.1814 93.7927 13.0799 85.0037 13.0799L74.4568 13.0799C73.4314 13.0799 72.7478 12.8357 71.9666 12.1033L64.447 4.63259C58.2947-1.56859 52.5818-1.51976 46.4295 4.63259L38.9099 12.1033C38.1775 12.8357 37.4451 13.0799 36.4685 13.0799L25.8728 13.0799C17.1326 13.0799 13.0799 17.0838 13.0799 25.8728L13.0799 36.4685C13.0799 37.4451 12.8357 38.1775 12.1033 38.9099L4.63259 46.4295C-1.56859 52.5818-1.51976 58.2947 4.63259 64.447L12.1033 71.9666C12.8357 72.7478 13.0799 73.4314 13.0799 74.4568L13.0799 85.0037C13.0799 93.7439 17.1326 97.7966 25.8728 97.7966Z" fill="white" fill-opacity="0.85"/>
 </g>
</svg>
