<?xml version="1.0" encoding="UTF-8"?>
<!--Generator: Apple Native CoreSVG 341-->
<!DOCTYPE svg
PUBLIC "-//W3C//DTD SVG 1.1//EN"
       "http://www.w3.org/Graphics/SVG/1.1/DTD/svg11.dtd">
<svg version="1.1" xmlns="http://www.w3.org/2000/svg" xmlns:xlink="http://www.w3.org/1999/xlink" viewBox="0 0 20.5737 21.9971">
 <g>
  <rect height="21.9971" opacity="0" width="20.5737" x="0" y="0"/>
  <path d="M14.7456 18.8456C14.6182 19.3076 14.2143 19.6167 13.6853 19.6167C13.2361 19.6167 12.8552 19.4312 12.406 19.0015L8.24586 15.0562C8.1775 14.9976 8.09937 14.9683 8.00172 14.9683L5.19898 14.9683C3.88062 14.9683 3.15797 14.2456 3.15797 12.8296L3.15797 9.1968C3.15797 8.56128 3.30556 8.06338 3.59041 7.70997ZM14.7888 3.5425L14.7888 13.5358L8.23109 6.98189C8.23614 6.97838 8.24102 6.97438 8.24586 6.97024L12.406 3.06399C12.9041 2.58547 13.2166 2.39016 13.6658 2.39016C14.3298 2.39016 14.7888 2.90774 14.7888 3.5425Z" fill="white" fill-opacity="0.85"/>
  <path d="M18.158 20.6421C18.4509 20.9351 18.9294 20.9351 19.2224 20.6421C19.5056 20.3394 19.5154 19.8706 19.2224 19.5777L2.4939 2.85891C2.20093 2.56594 1.71265 2.56594 1.41968 2.85891C1.13648 3.14211 1.13648 3.64016 1.41968 3.92336Z" fill="white" fill-opacity="0.85"/>
 </g>
</svg>
