<?xml version="1.0" encoding="UTF-8"?>
<!--Generator: Apple Native CoreSVG 326-->
<!DOCTYPE svg
PUBLIC "-//W3C//DTD SVG 1.1//EN"
       "http://www.w3.org/Graphics/SVG/1.1/DTD/svg11.dtd">
<svg version="1.1" xmlns="http://www.w3.org/2000/svg" xmlns:xlink="http://www.w3.org/1999/xlink" viewBox="0 0 108.457 110.596">
 <g>
  <rect height="110.596" opacity="0" width="108.457" x="0" y="0"/>
  <path d="M20.8055 102.734C22.8074 104.297 25.3465 103.76 28.3738 101.562L54.2039 82.5684L80.0828 101.562C83.1102 103.76 85.6004 104.297 87.6512 102.734C89.6531 101.221 90.0926 98.7305 88.8719 95.166L78.6668 64.7949L104.741 46.0449C107.768 43.8965 108.989 41.6504 108.208 39.209C107.427 36.8652 105.132 35.7422 101.372 35.7422L69.3895 35.7422L59.6727 5.41992C58.5008 1.80664 56.743 0 54.2039 0C51.7137 0 49.9559 1.80664 48.784 5.41992L39.0672 35.7422L7.08477 35.7422C3.32501 35.7422 1.03008 36.8652 0.248834 39.209C-0.581244 41.6504 0.688287 43.8965 3.71563 46.0449L29.7898 64.7949L19.5848 95.166C18.3641 98.7305 18.8035 101.221 20.8055 102.734Z" fill="white" fill-opacity="0.85"/>
 </g>
</svg>
