<?xml version="1.0" encoding="UTF-8"?>
<!--Generator: Apple Native CoreSVG 341-->
<!DOCTYPE svg
PUBLIC "-//W3C//DTD SVG 1.1//EN"
       "http://www.w3.org/Graphics/SVG/1.1/DTD/svg11.dtd">
<svg version="1.1" xmlns="http://www.w3.org/2000/svg" xmlns:xlink="http://www.w3.org/1999/xlink" viewBox="0 0 21.8848 21.5723">
 <g>
  <rect height="21.5723" opacity="0" width="21.8848" x="0" y="0"/>
  <path d="M21.5234 5.78125L21.5234 13.2617C21.5234 16.123 19.9609 17.7246 17.0508 17.7246L10.4492 17.7246L6.92383 20.9473C6.46484 21.377 6.18164 21.5723 5.80078 21.5723C5.24414 21.5723 4.93164 21.1719 4.93164 20.5664L4.93164 17.7246L4.47266 17.7246C1.5625 17.7246 0 16.1328 0 13.2617L0 5.78125C0 2.91016 1.5625 1.30859 4.47266 1.30859L17.0508 1.30859C19.9609 1.30859 21.5234 2.91992 21.5234 5.78125ZM6.5625 5.45898C5.60547 5.45898 4.96094 6.03516 4.96094 7.04102L4.96094 11.9922C4.96094 12.9883 5.56641 13.5742 6.5625 13.5742L11.8848 13.5742C12.8906 13.5742 13.4863 12.9883 13.4863 11.9922L13.4863 7.04102C13.4863 6.03516 12.9492 5.45898 11.9336 5.45898ZM16.0156 6.45508L14.0527 8.14453L14.0527 10.8887L16.0156 12.5684C16.2012 12.7246 16.3965 12.8125 16.5723 12.8125C16.9629 12.8125 17.2168 12.5293 17.2168 12.1094L17.2168 6.91406C17.2168 6.50391 16.9629 6.23047 16.5723 6.23047C16.3965 6.23047 16.1816 6.31836 16.0156 6.45508Z" fill="white" fill-opacity="0.85"/>
 </g>
</svg>
